{
  "accessors": [
    {
      "bufferView": 2,
      "componentType": 5126,
      "count": 4741,
      "max": [
        22.17770004272461,
        129.17489624023438,
        35.705501556396484
      ],
      "min": [
        -23.889999389648438,
        122.38899993896484,
        -904.238525390625
      ],
      "type": "VEC3"
    },
    {
      "bufferView": 2,
      "byteOffset": 56892,
      "componentType": 5126,
      "count": 4741,
      "max": [
        0.9999916553497314,
        1.0,
        1.0
      ],
      "min": [
        -0.9999916553497314,
        -1.0,
        -1.0
      ],
      "type": "VEC3"
    },
    {
      "bufferView": 1,
      "componentType": 5126,
      "count": 4741,
      "max": [
        2.7197999954223633,
        0.6029000282287598
      ],
      "min": [
        -1.7197999954223633,
        0.3971000015735626
      ],
      "type": "VEC2"
    },
    {
      "bufferView": 0,
      "componentType": 5125,
      "count": 27360,
      "type": "SCALAR"
    },
    {
      "bufferView": 2,
      "byteOffset": 113784,
      "componentType": 5126,
      "count": 5105,
      "max": [
        18.286800384521484,
        139.6529998779297,
        168.73179626464844
      ],
      "min": [
        -19.999300003051758,
        111.91069793701172,
        38.89860153198242
      ],
      "type": "VEC3"
    },
    {
      "bufferView": 2,
      "byteOffset": 175044,
      "componentType": 5126,
      "count": 5105,
      "max": [
        1.0,
        0.999998927116394,
        1.0
      ],
      "min": [
        -1.0,
        -0.999998927116394,
        -1.0
      ],
      "type": "VEC3"
    },
    {
      "bufferView": 3,
      "componentType": 5126,
      "count": 5105,
      "max": [
        1.0,
        1.0,
        0.026704344898462296,
        1.0
      ],
      "min": [
        -1.0,
        -1.0,
        -0.02755649760365486,
        1.0
      ],
      "type": "VEC4"
    },
    {
      "bufferView": 1,
      "byteOffset": 37928,
      "componentType": 5126,
      "count": 5105,
      "max": [
        1.180999994277954,
        1.739300012588501
      ],
      "min": [
        -0.14249999821186066,
        -0.4442000091075897
      ],
      "type": "VEC2"
    },
    {
      "bufferView": 0,
      "byteOffset": 109440,
      "componentType": 5125,
      "count": 29952,
      "type": "SCALAR"
    },
    {
      "bufferView": 2,
      "byteOffset": 236304,
      "componentType": 5126,
      "count": 5378,
      "max": [
        139.6352996826172,
        147.58770751953125,
        216.39669799804688
      ],
      "min": [
        -141.34779357910156,
        103.97630310058594,
        28.614500045776367
      ],
      "type": "VEC3"
    },
    {
      "bufferView": 2,
      "byteOffset": 300840,
      "componentType": 5126,
      "count": 5378,
      "max": [
        1.0,
        1.0,
        1.0
      ],
      "min": [
        -1.0,
        -1.0,
        -1.0
      ],
      "type": "VEC3"
    },
    {
      "bufferView": 1,
      "byteOffset": 78768,
      "componentType": 5126,
      "count": 5378,
      "max": [
        2.5251998901367188,
        2.5208001136779785
      ],
      "min": [
        -1.5252000093460083,
        -1.520799994468689
      ],
      "type": "VEC2"
    },
    {
      "bufferView": 0,
      "byteOffset": 229248,
      "componentType": 5125,
      "count": 28608,
      "type": "SCALAR"
    }
  ],
  "asset": {
    "extras": {
      "author": "leeeck (https://sketchfab.com/leeeck)",
      "license": "CC-BY-4.0 (http://creativecommons.org/licenses/by/4.0/)",
      "source": "https://sketchfab.com/3d-models/medieval-sword-oakeshott-type-xi-88844a7a2c874183909f33fb2264e7fb",
      "title": "Medieval Sword Oakeshott Type XI"
    },
    "generator": "Sketchfab-13.26.0",
    "version": "2.0"
  },
  "bufferViews": [
    {
      "buffer": 0,
      "byteLength": 343680,
      "name": "floatBufferViews",
      "target": 34963
    },
    {
      "buffer": 0,
      "byteLength": 121792,
      "byteOffset": 343680,
      "byteStride": 8,
      "name": "floatBufferViews",
      "target": 34962
    },
    {
      "buffer": 0,
      "byteLength": 365376,
      "byteOffset": 465472,
      "byteStride": 12,
      "name": "floatBufferViews",
      "target": 34962
    },
    {
      "buffer": 0,
      "byteLength": 81680,
      "byteOffset": 830848,
      "byteStride": 16,
      "name": "floatBufferViews",
      "target": 34962
    }
  ],
  "buffers": [
    {
      "byteLength": 912528,
      "uri": "scene.bin"
    }
  ],
  "extensionsUsed": [
    "KHR_texture_transform"
  ],
  "images": [
    {
      "uri": "textures/blade_baseColor.jpeg"
    },
    {
      "uri": "textures/blade_metallicRoughness.png"
    },
    {
      "uri": "textures/grip_metallicRoughness.png"
    },
    {
      "uri": "textures/grip_normal.png"
    },
    {
      "uri": "textures/hilt_metal_baseColor.jpeg"
    },
    {
      "uri": "textures/hilt_metal_metallicRoughness.png"
    }
  ],
  "materials": [
    {
      "doubleSided": true,
      "name": "blade",
      "pbrMetallicRoughness": {
        "baseColorTexture": {
          "index": 0
        },
        "metallicRoughnessTexture": {
          "index": 1
        },
        "roughnessFactor": 0.608001852958028
      }
    },
    {
      "doubleSided": true,
      "name": "grip",
      "normalTexture": {
        "extensions": {
          "KHR_texture_transform": {
            "scale": [
              1.2400000000000007,
              1.2436644715710299
            ]
          }
        },
        "index": 3,
        "scale": 0.38247735612146627
      },
      "pbrMetallicRoughness": {
        "baseColorFactor": [
          0.004911207922712966,
          0.00706814823183496,
          0.03709710925778361,
          1.0
        ],
        "metallicFactor": 0.0,
        "metallicRoughnessTexture": {
          "index": 2
        },
        "roughnessFactor": 0.7420974997257134
      }
    },
    {
      "doubleSided": true,
      "name": "hilt_metal",
      "pbrMetallicRoughness": {
        "baseColorTexture": {
          "index": 4
        },
        "metallicRoughnessTexture": {
          "index": 5
        },
        "roughnessFactor": 0.7908595530957808
      }
    }
  ],
  "meshes": [
    {
      "name": "Object_0",
      "primitives": [
        {
          "attributes": {
            "NORMAL": 1,
            "POSITION": 0,
            "TEXCOORD_0": 2
          },
          "indices": 3,
          "material": 0,
          "mode": 4
        }
      ]
    },
    {
      "name": "Object_1",
      "primitives": [
        {
          "attributes": {
            "NORMAL": 5,
            "POSITION": 4,
            "TANGENT": 6,
            "TEXCOORD_0": 7
          },
          "indices": 8,
          "material": 1,
          "mode": 4
        }
      ]
    },
    {
      "name": "Object_2",
      "primitives": [
        {
          "attributes": {
            "NORMAL": 10,
            "POSITION": 9,
            "TEXCOORD_0": 11
          },
          "indices": 12,
          "material": 2,
          "mode": 4
        }
      ]
    }
  ],
  "nodes": [
    {
      "children": [
        1
      ],
      "matrix": [
        0.0,
        -3.3306690738754696e-16,
        1.0,
        0.0,
        -1.1102230246251565e-16,
        1.0,
        4.440892098500626e-16,
        0.0,
        -1.0,
        -2.220446049250313e-16,
        1.110223024625156e-16,
        0.0,
        0.0,
        0.0,
        0.0,
        1.0
      ],
      "name": "Sketchfab_model"
    },
    {
      "children": [
        2,
        3,
        4
      ],
      "name": "type xi lying (1).obj.cleaner.materialmerger.gles"
    },
    {
      "mesh": 0,
      "name": "Object_2"
    },
    {
      "mesh": 1,
      "name": "Object_3"
    },
    {
      "mesh": 2,
      "name": "Object_4"
    }
  ],
  "samplers": [
    {
      "magFilter": 9729,
      "minFilter": 9987,
      "wrapS": 10497,
      "wrapT": 10497
    }
  ],
  "scene": 0,
  "scenes": [
    {
      "name": "Sketchfab_Scene",
      "nodes": [
        0
      ]
    }
  ],
  "textures": [
    {
      "sampler": 0,
      "source": 0
    },
    {
      "sampler": 0,
      "source": 1
    },
    {
      "sampler": 0,
      "source": 2
    },
    {
      "sampler": 0,
      "source": 3
    },
    {
      "sampler": 0,
      "source": 4
    },
    {
      "sampler": 0,
      "source": 5
    }
  ]
}
